<svg id="visual" viewBox="0 0 960 30" width="960" height="30" xmlns="http://www.w3.org/2000/svg" xmlns:xlink="http://www.w3.org/1999/xlink" version="1.1"><rect x="0" y="0" width="960" height="30" fill="#1a1a1a"></rect><path d="M0 10L6 10.5C12 11 24 12 35.8 12.2C47.7 12.3 59.3 11.7 71.2 11.2C83 10.7 95 10.3 106.8 10C118.7 9.7 130.3 9.3 142.2 8.8C154 8.3 166 7.7 177.8 7.8C189.7 8 201.3 9 213.2 10C225 11 237 12 248.8 11.3C260.7 10.7 272.3 8.3 284.2 7.5C296 6.7 308 7.3 320 8.2C332 9 344 10 355.8 10.5C367.7 11 379.3 11 391.2 10.2C403 9.3 415 7.7 426.8 8.2C438.7 8.7 450.3 11.3 462.2 12.5C474 13.7 486 13.3 497.8 12.2C509.7 11 521.3 9 533.2 8.2C545 7.3 557 7.7 568.8 8.3C580.7 9 592.3 10 604.2 10C616 10 628 9 640 8.7C652 8.3 664 8.7 675.8 8.3C687.7 8 699.3 7 711.2 6.7C723 6.3 735 6.7 746.8 7.5C758.7 8.3 770.3 9.7 782.2 9.3C794 9 806 7 817.8 6.7C829.7 6.3 841.3 7.7 853.2 8.3C865 9 877 9 888.8 8.8C900.7 8.7 912.3 8.3 924.2 8.3C936 8.3 948 8.7 954 8.8L960 9L960 0L954 0C948 0 936 0 924.2 0C912.3 0 900.7 0 888.8 0C877 0 865 0 853.2 0C841.3 0 829.7 0 817.8 0C806 0 794 0 782.2 0C770.3 0 758.7 0 746.8 0C735 0 723 0 711.2 0C699.3 0 687.7 0 675.8 0C664 0 652 0 640 0C628 0 616 0 604.2 0C592.3 0 580.7 0 568.8 0C557 0 545 0 533.2 0C521.3 0 509.7 0 497.8 0C486 0 474 0 462.2 0C450.3 0 438.7 0 426.8 0C415 0 403 0 391.2 0C379.3 0 367.7 0 355.8 0C344 0 332 0 320 0C308 0 296 0 284.2 0C272.3 0 260.7 0 248.8 0C237 0 225 0 213.2 0C201.3 0 189.7 0 177.8 0C166 0 154 0 142.2 0C130.3 0 118.7 0 106.8 0C95 0 83 0 71.2 0C59.3 0 47.7 0 35.8 0C24 0 12 0 6 0L0 0Z" fill="#ffd700" stroke-linecap="round" stroke-linejoin="miter"></path></svg>