<svg id="visual" viewBox="0 0 900 60" width="900" height="60" xmlns="http://www.w3.org/2000/svg" xmlns:xlink="http://www.w3.org/1999/xlink" version="1.1"><rect x="0" y="0" width="900" height="60" fill="#333333"></rect><path d="M0 26L25 26C50 26 100 26 150 27.2C200 28.3 250 30.7 300 31.5C350 32.3 400 31.7 450 31.3C500 31 550 31 600 30.2C650 29.3 700 27.7 750 26.3C800 25 850 24 875 23.5L900 23L900 61L875 61C850 61 800 61 750 61C700 61 650 61 600 61C550 61 500 61 450 61C400 61 350 61 300 61C250 61 200 61 150 61C100 61 50 61 25 61L0 61Z" fill="#404040" stroke-linecap="round" stroke-linejoin="miter"></path></svg>