<svg id="visual" viewBox="0 0 960 200" width="960" height="200" xmlns="http://www.w3.org/2000/svg" xmlns:xlink="http://www.w3.org/1999/xlink" version="1.1"><rect x="0" y="0" width="960" height="200" fill="#1a1a1a"></rect><path d="M0 125L26.7 120.2C53.3 115.3 106.7 105.7 160 107C213.3 108.3 266.7 120.7 320 122C373.3 123.3 426.7 113.7 480 106.7C533.3 99.7 586.7 95.3 640 99.2C693.3 103 746.7 115 800 121.3C853.3 127.7 906.7 128.3 933.3 128.7L960 129L960 0L933.3 0C906.7 0 853.3 0 800 0C746.7 0 693.3 0 640 0C586.7 0 533.3 0 480 0C426.7 0 373.3 0 320 0C266.7 0 213.3 0 160 0C106.7 0 53.3 0 26.7 0L0 0Z" fill="#404040" stroke-linecap="round" stroke-linejoin="miter"></path></svg>