<svg id="visual" viewBox="0 0 960 30" width="960" height="30" xmlns="http://www.w3.org/2000/svg" xmlns:xlink="http://www.w3.org/1999/xlink" version="1.1"><rect x="0" y="0" width="960" height="30" fill="#1a1a1a"></rect><path d="M0 18L6 17.5C12 17 24 16 35.8 15.8C47.7 15.7 59.3 16.3 71.2 16.8C83 17.3 95 17.7 106.8 18C118.7 18.3 130.3 18.7 142.2 19.2C154 19.7 166 20.3 177.8 20.2C189.7 20 201.3 19 213.2 18C225 17 237 16 248.8 16.7C260.7 17.3 272.3 19.7 284.2 20.5C296 21.3 308 20.7 320 19.8C332 19 344 18 355.8 17.5C367.7 17 379.3 17 391.2 17.8C403 18.7 415 20.3 426.8 19.8C438.7 19.3 450.3 16.7 462.2 15.5C474 14.3 486 14.7 497.8 15.8C509.7 17 521.3 19 533.2 19.8C545 20.7 557 20.3 568.8 19.7C580.7 19 592.3 18 604.2 18C616 18 628 19 640 19.3C652 19.7 664 19.3 675.8 19.7C687.7 20 699.3 21 711.2 21.3C723 21.7 735 21.3 746.8 20.5C758.7 19.7 770.3 18.3 782.2 18.7C794 19 806 21 817.8 21.3C829.7 21.7 841.3 20.3 853.2 19.7C865 19 877 19 888.8 19.2C900.7 19.3 912.3 19.7 924.2 19.7C936 19.7 948 19.3 954 19.2L960 19L960 31L954 31C948 31 936 31 924.2 31C912.3 31 900.7 31 888.8 31C877 31 865 31 853.2 31C841.3 31 829.7 31 817.8 31C806 31 794 31 782.2 31C770.3 31 758.7 31 746.8 31C735 31 723 31 711.2 31C699.3 31 687.7 31 675.8 31C664 31 652 31 640 31C628 31 616 31 604.2 31C592.3 31 580.7 31 568.8 31C557 31 545 31 533.2 31C521.3 31 509.7 31 497.8 31C486 31 474 31 462.2 31C450.3 31 438.7 31 426.8 31C415 31 403 31 391.2 31C379.3 31 367.7 31 355.8 31C344 31 332 31 320 31C308 31 296 31 284.2 31C272.3 31 260.7 31 248.8 31C237 31 225 31 213.2 31C201.3 31 189.7 31 177.8 31C166 31 154 31 142.2 31C130.3 31 118.7 31 106.8 31C95 31 83 31 71.2 31C59.3 31 47.7 31 35.8 31C24 31 12 31 6 31L0 31Z" fill="#ffd700" stroke-linecap="round" stroke-linejoin="miter"></path></svg>