<svg id="visual" viewBox="0 0 960 200" width="960" height="200" xmlns="http://www.w3.org/2000/svg" xmlns:xlink="http://www.w3.org/1999/xlink" version="1.1"><path d="M0 27L32 30.3C64 33.7 128 40.3 192 39.7C256 39 320 31 384 27.7C448 24.3 512 25.7 576 27C640 28.3 704 29.7 768 31.7C832 33.7 896 36.3 928 37.7L960 39L960 0L928 0C896 0 832 0 768 0C704 0 640 0 576 0C512 0 448 0 384 0C320 0 256 0 192 0C128 0 64 0 32 0L0 0Z" fill="#1a1a1a"></path><path d="M0 39L32 42C64 45 128 51 192 50C256 49 320 41 384 38C448 35 512 37 576 38C640 39 704 39 768 40.3C832 41.7 896 44.3 928 45.7L960 47L960 37L928 35.7C896 34.3 832 31.7 768 29.7C704 27.7 640 26.3 576 25C512 23.7 448 22.3 384 25.7C320 29 256 37 192 37.7C128 38.3 64 31.7 32 28.3L0 25Z" fill="#1d1d1d"></path><path d="M0 51L32 54.3C64 57.7 128 64.3 192 64C256 63.7 320 56.3 384 53C448 49.7 512 50.3 576 50.7C640 51 704 51 768 51.7C832 52.3 896 53.7 928 54.3L960 55L960 45L928 43.7C896 42.3 832 39.7 768 38.3C704 37 640 37 576 36C512 35 448 33 384 36C320 39 256 47 192 48C128 49 64 43 32 40L0 37Z" fill="#212121"></path><path d="M0 61L32 65.3C64 69.7 128 78.3 192 80C256 81.7 320 76.3 384 74C448 71.7 512 72.3 576 72C640 71.7 704 70.3 768 69.3C832 68.3 896 67.7 928 67.3L960 67L960 53L928 52.3C896 51.7 832 50.3 768 49.7C704 49 640 49 576 48.7C512 48.3 448 47.7 384 51C320 54.3 256 61.7 192 62C128 62.3 64 55.7 32 52.3L0 49Z" fill="#252525"></path><path d="M0 79L32 83.3C64 87.7 128 96.3 192 97C256 97.7 320 90.3 384 88C448 85.7 512 88.3 576 87.7C640 87 704 83 768 81.3C832 79.7 896 80.3 928 80.7L960 81L960 65L928 65.3C896 65.7 832 66.3 768 67.3C704 68.3 640 69.7 576 70C512 70.3 448 69.7 384 72C320 74.3 256 79.7 192 78C128 76.3 64 67.7 32 63.3L0 59Z" fill="#282828"></path><path d="M0 95L32 99.3C64 103.7 128 112.3 192 112.3C256 112.3 320 103.7 384 101.7C448 99.7 512 104.3 576 103.3C640 102.3 704 95.7 768 94C832 92.3 896 95.7 928 97.3L960 99L960 79L928 78.7C896 78.3 832 77.7 768 79.3C704 81 640 85 576 85.7C512 86.3 448 83.7 384 86C320 88.3 256 95.7 192 95C128 94.3 64 85.7 32 81.3L0 77Z" fill="#2c2c2c"></path><path d="M0 103L32 107.7C64 112.3 128 121.7 192 121.7C256 121.7 320 112.3 384 110.7C448 109 512 115 576 113.7C640 112.3 704 103.7 768 102C832 100.3 896 105.7 928 108.3L960 111L960 97L928 95.3C896 93.7 832 90.3 768 92C704 93.7 640 100.3 576 101.3C512 102.3 448 97.7 384 99.7C320 101.7 256 110.3 192 110.3C128 110.3 64 101.7 32 97.3L0 93Z" fill="#303030"></path><path d="M0 123L32 128C64 133 128 143 192 143.7C256 144.3 320 135.7 384 133C448 130.3 512 133.7 576 132.3C640 131 704 125 768 125C832 125 896 131 928 134L960 137L960 109L928 106.3C896 103.7 832 98.3 768 100C704 101.7 640 110.3 576 111.7C512 113 448 107 384 108.7C320 110.3 256 119.7 192 119.7C128 119.7 64 110.3 32 105.7L0 101Z" fill="#343434"></path><path d="M0 129L32 134C64 139 128 149 192 150C256 151 320 143 384 141C448 139 512 143 576 142C640 141 704 135 768 134.7C832 134.3 896 139.7 928 142.3L960 145L960 135L928 132C896 129 832 123 768 123C704 123 640 129 576 130.3C512 131.7 448 128.3 384 131C320 133.7 256 142.3 192 141.7C128 141 64 131 32 126L0 121Z" fill="#383838"></path><path d="M0 139L32 143.3C64 147.7 128 156.3 192 157.3C256 158.3 320 151.7 384 149.7C448 147.7 512 150.3 576 149C640 147.7 704 142.3 768 143C832 143.7 896 150.3 928 153.7L960 157L960 143L928 140.3C896 137.7 832 132.3 768 132.7C704 133 640 139 576 140C512 141 448 137 384 139C320 141 256 149 192 148C128 147 64 137 32 132L0 127Z" fill="#3c3c3c"></path><path d="M0 201L32 201C64 201 128 201 192 201C256 201 320 201 384 201C448 201 512 201 576 201C640 201 704 201 768 201C832 201 896 201 928 201L960 201L960 155L928 151.7C896 148.3 832 141.7 768 141C704 140.3 640 145.7 576 147C512 148.3 448 145.7 384 147.7C320 149.7 256 156.3 192 155.3C128 154.3 64 145.7 32 141.3L0 137Z" fill="#404040"></path></svg>